<?xml version="1.0" encoding="UTF-8" standalone="no"?>
<!-- Created with Inkscape (http://www.inkscape.org/) -->

<svg
   xmlns:dc="http://purl.org/dc/elements/1.1/"
   xmlns:cc="http://creativecommons.org/ns#"
   xmlns:rdf="http://www.w3.org/1999/02/22-rdf-syntax-ns#"
   xmlns:svg="http://www.w3.org/2000/svg"
   xmlns="http://www.w3.org/2000/svg"
   xmlns:sodipodi="http://sodipodi.sourceforge.net/DTD/sodipodi-0.dtd"
   xmlns:inkscape="http://www.inkscape.org/namespaces/inkscape"
   width="210mm"
   height="210mm"
   viewBox="0 0 210 210"
   version="1.1"
   id="svg8"
   inkscape:version="0.92.3 (2405546, 2018-03-11)"
   sodipodi:docname="reddirect.svg">
  <defs
     id="defs2" />
  <sodipodi:namedview
     id="base"
     pagecolor="#ffffff"
     bordercolor="#666666"
     borderopacity="1.0"
     inkscape:pageopacity="0.0"
     inkscape:pageshadow="2"
     inkscape:zoom="0.35"
     inkscape:cx="-30"
     inkscape:cy="560"
     inkscape:document-units="mm"
     inkscape:current-layer="layer1"
     showgrid="false"
     showborder="false"
     fit-margin-bottom="-0.8"
     inkscape:window-width="1309"
     inkscape:window-height="713"
     inkscape:window-x="1417"
     inkscape:window-y="27"
     inkscape:window-maximized="1" />
  <metadata
     id="metadata5">
    <rdf:RDF>
      <cc:Work
         rdf:about="">
        <dc:format>image/svg+xml</dc:format>
        <dc:type
           rdf:resource="http://purl.org/dc/dcmitype/StillImage" />
        <dc:title></dc:title>
      </cc:Work>
    </rdf:RDF>
  </metadata>
  <g
     inkscape:label="Layer 1"
     inkscape:groupmode="layer"
     id="layer1"
     transform="translate(0,-87)">
    <g
       id="g4663"
       transform="matrix(0.26458333,0,0,0.26458333,24.036718,111.03684)">
      <g
         id="g4605">
	<g
   id="_x37__11_">
		<g
   id="g4602">
			<path
   id="path4600"
   d="m 305.934,516.253 c -96.313,0 -177.413,-64.681 -202.395,-152.909 h 62.158 c 5.906,-5.734 9.002,-13.494 3.096,-19.229 L 97.002,271.598 c -5.906,-5.734 -15.482,-5.734 -21.388,0 L 4.302,344.115 c -8.468,9.939 -2.81,13.494 3.096,19.229 h 56.978 c 25.937,109.521 123.99,191.136 241.558,191.136 89.433,0 167.626,-47.325 211.454,-118.104 l -35.991,-14.373 c -37.692,56.768 -102.162,94.25 -175.463,94.25 z M 605.731,267.775 h -54.34 C 532.947,148.735 430.248,57.525 305.934,57.525 c -95.874,0 -178.923,54.264 -220.438,133.624 l 35.628,14.24 C 156.81,140.077 226.192,95.753 305.934,95.753 c 103.137,0 188.804,74.18 206.81,172.022 h -65.293 c -5.905,5.734 -11.563,9.29 -3.096,19.229 l 71.312,72.518 c 5.906,5.733 15.482,5.733 21.389,0 l 71.791,-72.518 c 5.887,-5.734 2.79,-13.494 -3.116,-19.229 z"
   inkscape:connector-curvature="0" />

		</g>

	</g>

</g>
      <g
         id="g4607">
</g>
      <g
         id="g4609">
</g>
      <g
         id="g4611">
</g>
      <g
         id="g4613">
</g>
      <g
         id="g4615">
</g>
      <g
         id="g4617">
</g>
      <g
         id="g4619">
</g>
      <g
         id="g4621">
</g>
      <g
         id="g4623">
</g>
      <g
         id="g4625">
</g>
      <g
         id="g4627">
</g>
      <g
         id="g4629">
</g>
      <g
         id="g4631">
</g>
      <g
         id="g4633">
</g>
      <g
         id="g4635">
</g>
    </g>
  </g>
</svg>
